<svg xmlns="http://www.w3.org/2000/svg" width="26" height="17" viewBox="0 0 26 17" style="opacity: .5">  <path fill="#555a59" d="M25.85 8.55C21.77 3.41 17.38.88 12.8 1 5.42 1.22.34 8.28.13 8.58l-.03.05-.02.03-.03.09-.02.04-.02.08-.01.06v.14l.01.06.02.08.02.04.03.09.02.03.03.05c.21.3 5.29 7.36 12.67 7.58h.34c4.46 0 8.73-2.54 12.71-7.55.1-.13.15-.29.15-.45a.74.74 0 0 0-.15-.45zm-13 7.04C7.11 15.43 2.73 10.48 1.54 9c1.19-1.48 5.57-6.43 11.31-6.59 4-.11 7.89 2.11 11.59 6.59-3.7 4.48-7.58 6.71-11.59 6.59z"/><path fill="#555a59" d="M13 5a4 4 0 1 0 0 8 4 4 0 0 0 0-8zm0 7a3 3 0 0 1-3-3 3 3 0 0 1 3-3 3 3 0 0 1 3 3 3 3 0 0 1-3 3z"/></svg>